<svg version="1.1" viewBox="0.0 0.0 612.5223097112861 478.4146981627297" fill="none" stroke="none" stroke-linecap="square" stroke-miterlimit="10" xmlns:xlink="http://www.w3.org/1999/xlink" xmlns="http://www.w3.org/2000/svg"><clipPath id="p.0"><path d="m0 0l612.52234 0l0 478.4147l-612.52234 0l0 -478.4147z" clip-rule="nonzero"/></clipPath><g clip-path="url(#p.0)"><path fill="#000000" fill-opacity="0.0" d="m0 0l612.52234 0l0 478.4147l-612.52234 0z" fill-rule="evenodd"/><path fill="#000000" fill-opacity="0.0" d="m502.50262 70.002625l0 0c0 -29.675522 24.056763 -53.732285 53.7323 -53.732285l0 0c14.250671 0 27.917664 5.6610622 37.994446 15.737822c10.076782 10.076756 15.737793 23.743774 15.737793 37.99446l0 0c0 29.675522 -24.056763 53.732285 -53.73224 53.732285l0 0c-29.675537 0 -53.7323 -24.056763 -53.7323 -53.732285z" fill-rule="evenodd"/><path stroke="#ffffff" stroke-width="2.0" stroke-linejoin="round" stroke-linecap="butt" d="m502.50262 70.002625l0 0c0 -29.675522 24.056763 -53.732285 53.7323 -53.732285l0 0c14.250671 0 27.917664 5.6610622 37.994446 15.737822c10.076782 10.076756 15.737793 23.743774 15.737793 37.99446l0 0c0 29.675522 -24.056763 53.732285 -53.73224 53.732285l0 0c-29.675537 0 -53.7323 -24.056763 -53.7323 -53.732285z" fill-rule="evenodd"/><path fill="#ffffff" d="m538.10535 67.75075l0 5.296875q0 1.71875 -1.25 2.9375q-1.234375 1.203125 -2.984375 1.203125q-0.859375 0 -1.625 -0.296875q-0.75 -0.3125 -1.359375 -0.890625q-0.609375 -0.59375 -0.953125 -1.234375q-0.328125 -0.65625 -0.328125 -1.71875l0 -5.296875q-0.59375 0 -0.875 -0.265625q-0.28125 -0.265625 -0.28125 -0.671875q0 -0.421875 0.28125 -0.671875q0.28125 -0.265625 0.96875 -0.265625l2.453125 0q0.671875 0 0.953125 0.265625q0.28125 0.25 0.28125 0.671875q0 0.421875 -0.28125 0.6875q-0.28125 0.25 -0.953125 0.25l-0.6875 0l0 5.453125q0 0.84375 0.703125 1.484375q0.703125 0.640625 1.6875 0.640625q0.65625 0 1.21875 -0.3125q0.578125 -0.3125 0.9375 -0.90625q0.234375 -0.359375 0.234375 -0.90625l0 -5.453125l-0.671875 0q-0.671875 0 -0.96875 -0.25q-0.28125 -0.265625 -0.28125 -0.6875q0 -0.421875 0.28125 -0.671875q0.296875 -0.265625 0.96875 -0.265625l2.453125 0q0.671875 0 0.953125 0.265625q0.28125 0.25 0.28125 0.671875q0 0.40625 -0.28125 0.671875q-0.28125 0.265625 -0.875 0.265625zm10.851807 4.71875l-7.796875 0l0 -1.703125l7.796875 0l0 1.703125zm5.5393677 2.578125l4.078125 0q0.34375 -0.265625 0.640625 -0.265625q0.4375 0 0.6875 0.28125q0.25 0.28125 0.25 0.96875l0 0.890625l-8.515625 0l0 -1.984375q5.046875 -4.15625 6.09375 -5.34375q0.53125 -0.609375 0.53125 -1.15625q0 -0.6875 -0.59375 -1.203125q-0.59375 -0.53125 -1.59375 -0.53125q-1.0 0 -1.671875 0.578125q-0.34375 0.3125 -0.546875 0.921875q-0.125 0.390625 -0.359375 0.5625q-0.21875 0.15625 -0.546875 0.15625q-0.375 0 -0.65625 -0.265625q-0.28125 -0.28125 -0.28125 -0.65625q0 -0.546875 0.5 -1.359375q0.515625 -0.828125 1.484375 -1.3125q0.96875 -0.5 2.109375 -0.5q1.765625 0 2.890625 1.078125q1.125 1.0625 1.125 2.59375q0 0.765625 -0.328125 1.4375q-0.3125 0.65625 -1.546875 1.8125q-0.953125 0.921875 -3.75 3.296875zm15.601807 -4.359375q0.828125 0.5625 1.234375 1.3125q0.40625 0.734375 0.40625 1.65625q0 0.984375 -0.546875 1.828125q-0.53125 0.84375 -1.5625 1.28125q-1.03125 0.421875 -2.703125 0.421875q-2.15625 0 -3.25 -0.671875q-0.609375 -0.375 -0.609375 -0.90625q0 -0.40625 0.265625 -0.671875q0.265625 -0.28125 0.65625 -0.28125q0.25 0 0.546875 0.171875q0.390625 0.28125 0.75 0.375q0.546875 0.125 1.5 0.125q1.640625 0 2.359375 -0.421875q0.734375 -0.421875 0.734375 -1.203125q0 -0.578125 -0.421875 -1.109375q-0.421875 -0.53125 -1.140625 -0.8125q-0.40625 -0.171875 -1.390625 -0.234375q-0.453125 -0.03125 -0.703125 -0.28125q-0.25 -0.265625 -0.25 -0.640625q0 -0.40625 0.265625 -0.671875q0.28125 -0.28125 0.6875 -0.28125q0.9375 0 1.0 -0.015625q0.359375 -0.03125 0.71875 -0.234375q0.375 -0.203125 0.59375 -0.546875q0.234375 -0.359375 0.234375 -0.71875q0 -0.59375 -0.53125 -1.03125q-0.515625 -0.4375 -1.578125 -0.4375q-1.34375 0 -2.046875 0.78125q-0.21875 0.234375 -0.34375 0.296875q-0.1875 0.09375 -0.421875 0.09375q-0.390625 0 -0.671875 -0.265625q-0.265625 -0.265625 -0.265625 -0.671875q0 -0.625 0.84375 -1.21875q1.21875 -0.875 3.046875 -0.875q1.734375 0 2.78125 0.984375q1.046875 0.984375 1.046875 2.375q0 0.71875 -0.3125 1.34375q-0.3125 0.625 -0.921875 1.15625zm6.9611816 -3.6875l0 2.21875q1.03125 -0.328125 1.875 -0.328125q1.734375 0 2.859375 1.1875q1.140625 1.171875 1.140625 3.03125q0 1.90625 -1.15625 3.0q-1.140625 1.078125 -3.515625 1.078125q-2.09375 0 -3.328125 -0.78125q-0.703125 -0.453125 -0.703125 -1.046875q0 -0.375 0.28125 -0.65625q0.28125 -0.28125 0.65625 -0.28125q0.3125 0 0.6875 0.3125q0.375 0.296875 0.78125 0.421875q0.59375 0.171875 1.5 0.171875q1.703125 0 2.3125 -0.53125q0.625 -0.546875 0.625 -1.671875q0 -1.109375 -0.609375 -1.734375q-0.59375 -0.625 -1.53125 -0.625q-1.0 0 -2.296875 0.65625q-0.296875 0.15625 -0.515625 0.15625q-0.390625 0 -0.671875 -0.296875q-0.265625 -0.296875 -0.265625 -0.75l0 -5.390625l5.71875 0q0.671875 0 0.953125 0.265625q0.296875 0.25 0.296875 0.671875q0 0.40625 -0.296875 0.671875q-0.28125 0.25 -0.953125 0.25l-3.84375 0z" fill-rule="nonzero"/><path fill="#000000" fill-opacity="0.0" d="m502.50262 182.4042l0 0c0 -29.675522 24.056763 -53.732285 53.7323 -53.732285l0 0c14.250671 0 27.917664 5.6610565 37.994446 15.7378235c10.076782 10.076752 15.737793 23.743774 15.737793 37.99446l0 0c0 29.675522 -24.056763 53.732285 -53.73224 53.732285l0 0c-29.675537 0 -53.7323 -24.056763 -53.7323 -53.732285z" fill-rule="evenodd"/><path stroke="#ffffff" stroke-width="2.0" stroke-linejoin="round" stroke-linecap="butt" d="m502.50262 182.4042l0 0c0 -29.675522 24.056763 -53.732285 53.7323 -53.732285l0 0c14.250671 0 27.917664 5.6610565 37.994446 15.7378235c10.076782 10.076752 15.737793 23.743774 15.737793 37.99446l0 0c0 29.675522 -24.056763 53.732285 -53.73224 53.732285l0 0c-29.675537 0 -53.7323 -24.056763 -53.7323 -53.732285z" fill-rule="evenodd"/><path fill="#ffffff" d="m538.10535 180.15233l0 5.296875q0 1.71875 -1.25 2.9375q-1.234375 1.203125 -2.984375 1.203125q-0.859375 0 -1.625 -0.296875q-0.75 -0.3125 -1.359375 -0.890625q-0.609375 -0.59375 -0.953125 -1.234375q-0.328125 -0.65625 -0.328125 -1.71875l0 -5.296875q-0.59375 0 -0.875 -0.265625q-0.28125 -0.265625 -0.28125 -0.671875q0 -0.421875 0.28125 -0.671875q0.28125 -0.265625 0.96875 -0.265625l2.453125 0q0.671875 0 0.953125 0.265625q0.28125 0.25 0.28125 0.671875q0 0.421875 -0.28125 0.6875q-0.28125 0.25 -0.953125 0.25l-0.6875 0l0 5.453125q0 0.84375 0.703125 1.484375q0.703125 0.640625 1.6875 0.640625q0.65625 0 1.21875 -0.3125q0.578125 -0.3125 0.9375 -0.90625q0.234375 -0.359375 0.234375 -0.90625l0 -5.453125l-0.671875 0q-0.671875 0 -0.96875 -0.25q-0.28125 -0.265625 -0.28125 -0.6875q0 -0.421875 0.28125 -0.671875q0.296875 -0.265625 0.96875 -0.265625l2.453125 0q0.671875 0 0.953125 0.265625q0.28125 0.25 0.28125 0.671875q0 0.40625 -0.28125 0.671875q-0.28125 0.265625 -0.875 0.265625zm10.851807 4.71875l-7.796875 0l0 -1.703125l7.796875 0l0 1.703125zm5.5393677 2.578125l4.078125 0q0.34375 -0.265625 0.640625 -0.265625q0.4375 0 0.6875 0.28125q0.25 0.28125 0.25 0.96875l0 0.890625l-8.515625 0l0 -1.984375q5.046875 -4.15625 6.09375 -5.34375q0.53125 -0.609375 0.53125 -1.15625q0 -0.6875 -0.59375 -1.203125q-0.59375 -0.53125 -1.59375 -0.53125q-1.0 0 -1.671875 0.578125q-0.34375 0.3125 -0.546875 0.921875q-0.125 0.390625 -0.359375 0.5625q-0.21875 0.15625 -0.546875 0.15625q-0.375 0 -0.65625 -0.265625q-0.28125 -0.28125 -0.28125 -0.65625q0 -0.546875 0.5 -1.359375q0.515625 -0.828125 1.484375 -1.3125q0.96875 -0.5 2.109375 -0.5q1.765625 0 2.890625 1.078125q1.125 1.0625 1.125 2.59375q0 0.765625 -0.328125 1.4375q-0.3125 0.65625 -1.546875 1.8125q-0.953125 0.921875 -3.75 3.296875zm15.601807 -4.359375q0.828125 0.5625 1.234375 1.3125q0.40625 0.734375 0.40625 1.65625q0 0.984375 -0.546875 1.828125q-0.53125 0.84375 -1.5625 1.28125q-1.03125 0.421875 -2.703125 0.421875q-2.15625 0 -3.25 -0.671875q-0.609375 -0.375 -0.609375 -0.90625q0 -0.40625 0.265625 -0.671875q0.265625 -0.28125 0.65625 -0.28125q0.25 0 0.546875 0.171875q0.390625 0.28125 0.75 0.375q0.546875 0.125 1.5 0.125q1.640625 0 2.359375 -0.421875q0.734375 -0.421875 0.734375 -1.203125q0 -0.578125 -0.421875 -1.109375q-0.421875 -0.53125 -1.140625 -0.8125q-0.40625 -0.171875 -1.390625 -0.234375q-0.453125 -0.03125 -0.703125 -0.28125q-0.25 -0.265625 -0.25 -0.640625q0 -0.40625 0.265625 -0.671875q0.28125 -0.28125 0.6875 -0.28125q0.9375 0 1.0 -0.015625q0.359375 -0.03125 0.71875 -0.234375q0.375 -0.203125 0.59375 -0.546875q0.234375 -0.359375 0.234375 -0.71875q0 -0.59375 -0.53125 -1.03125q-0.515625 -0.4375 -1.578125 -0.4375q-1.34375 0 -2.046875 0.78125q-0.21875 0.234375 -0.34375 0.296875q-0.1875 0.09375 -0.421875 0.09375q-0.390625 0 -0.671875 -0.265625q-0.265625 -0.265625 -0.265625 -0.671875q0 -0.625 0.84375 -1.21875q1.21875 -0.875 3.046875 -0.875q1.734375 0 2.78125 0.984375q1.046875 0.984375 1.046875 2.375q0 0.71875 -0.3125 1.34375q-0.3125 0.625 -0.921875 1.15625zm6.9611816 -3.6875l0 2.21875q1.03125 -0.328125 1.875 -0.328125q1.734375 0 2.859375 1.1875q1.140625 1.171875 1.140625 3.03125q0 1.90625 -1.15625 3.0q-1.140625 1.078125 -3.515625 1.078125q-2.09375 0 -3.328125 -0.78125q-0.703125 -0.453125 -0.703125 -1.046875q0 -0.375 0.28125 -0.65625q0.28125 -0.28125 0.65625 -0.28125q0.3125 0 0.6875 0.3125q0.375 0.296875 0.78125 0.421875q0.59375 0.171875 1.5 0.171875q1.703125 0 2.3125 -0.53125q0.625 -0.546875 0.625 -1.671875q0 -1.109375 -0.609375 -1.734375q-0.59375 -0.625 -1.53125 -0.625q-1.0 0 -2.296875 0.65625q-0.296875 0.15625 -0.515625 0.15625q-0.390625 0 -0.671875 -0.296875q-0.265625 -0.296875 -0.265625 -0.75l0 -5.390625l5.71875 0q0.671875 0 0.953125 0.265625q0.296875 0.25 0.296875 0.671875q0 0.40625 -0.296875 0.671875q-0.28125 0.25 -0.953125 0.25l-3.84375 0z" fill-rule="nonzero"/><path fill="#000000" fill-opacity="0.0" d="m502.50262 294.8058l0 0c0 -29.675537 24.056763 -53.7323 53.7323 -53.7323l0 0c14.250671 0 27.917664 5.661072 37.994446 15.7378235c10.076782 10.076752 15.737793 23.743774 15.737793 37.994476l0 0c0 29.675507 -24.056763 53.73227 -53.73224 53.73227l0 0c-29.675537 0 -53.7323 -24.056763 -53.7323 -53.73227z" fill-rule="evenodd"/><path stroke="#ffffff" stroke-width="2.0" stroke-linejoin="round" stroke-linecap="butt" d="m502.50262 294.8058l0 0c0 -29.675537 24.056763 -53.7323 53.7323 -53.7323l0 0c14.250671 0 27.917664 5.661072 37.994446 15.7378235c10.076782 10.076752 15.737793 23.743774 15.737793 37.994476l0 0c0 29.675507 -24.056763 53.73227 -53.73224 53.73227l0 0c-29.675537 0 -53.7323 -24.056763 -53.7323 -53.73227z" fill-rule="evenodd"/><path fill="#ffffff" d="m538.10535 292.5539l0 5.296875q0 1.71875 -1.25 2.9375q-1.234375 1.203125 -2.984375 1.203125q-0.859375 0 -1.625 -0.296875q-0.75 -0.3125 -1.359375 -0.890625q-0.609375 -0.59375 -0.953125 -1.234375q-0.328125 -0.65625 -0.328125 -1.71875l0 -5.296875q-0.59375 0 -0.875 -0.265625q-0.28125 -0.265625 -0.28125 -0.671875q0 -0.421875 0.28125 -0.671875q0.28125 -0.265625 0.96875 -0.265625l2.453125 0q0.671875 0 0.953125 0.265625q0.28125 0.25 0.28125 0.671875q0 0.421875 -0.28125 0.6875q-0.28125 0.25 -0.953125 0.25l-0.6875 0l0 5.453125q0 0.84375 0.703125 1.484375q0.703125 0.640625 1.6875 0.640625q0.65625 0 1.21875 -0.3125q0.578125 -0.3125 0.9375 -0.90625q0.234375 -0.359375 0.234375 -0.90625l0 -5.453125l-0.671875 0q-0.671875 0 -0.96875 -0.25q-0.28125 -0.265625 -0.28125 -0.6875q0 -0.421875 0.28125 -0.671875q0.296875 -0.265625 0.96875 -0.265625l2.453125 0q0.671875 0 0.953125 0.265625q0.28125 0.25 0.28125 0.671875q0 0.40625 -0.28125 0.671875q-0.28125 0.265625 -0.875 0.265625zm10.851807 4.71875l-7.796875 0l0 -1.703125l7.796875 0l0 1.703125zm5.5393677 2.578125l4.078125 0q0.34375 -0.265625 0.640625 -0.265625q0.4375 0 0.6875 0.28125q0.25 0.28125 0.25 0.96875l0 0.890625l-8.515625 0l0 -1.984375q5.046875 -4.15625 6.09375 -5.34375q0.53125 -0.609375 0.53125 -1.15625q0 -0.6875 -0.59375 -1.203125q-0.59375 -0.53125 -1.59375 -0.53125q-1.0 0 -1.671875 0.578125q-0.34375 0.3125 -0.546875 0.921875q-0.125 0.390625 -0.359375 0.5625q-0.21875 0.15625 -0.546875 0.15625q-0.375 0 -0.65625 -0.265625q-0.28125 -0.28125 -0.28125 -0.65625q0 -0.546875 0.5 -1.359375q0.515625 -0.828125 1.484375 -1.3125q0.96875 -0.5 2.109375 -0.5q1.765625 0 2.890625 1.078125q1.125 1.0625 1.125 2.59375q0 0.765625 -0.328125 1.4375q-0.3125 0.65625 -1.546875 1.8125q-0.953125 0.921875 -3.75 3.296875zm15.601807 -4.359375q0.828125 0.5625 1.234375 1.3125q0.40625 0.734375 0.40625 1.65625q0 0.984375 -0.546875 1.828125q-0.53125 0.84375 -1.5625 1.28125q-1.03125 0.421875 -2.703125 0.421875q-2.15625 0 -3.25 -0.671875q-0.609375 -0.375 -0.609375 -0.90625q0 -0.40625 0.265625 -0.671875q0.265625 -0.28125 0.65625 -0.28125q0.25 0 0.546875 0.171875q0.390625 0.28125 0.75 0.375q0.546875 0.125 1.5 0.125q1.640625 0 2.359375 -0.421875q0.734375 -0.421875 0.734375 -1.203125q0 -0.578125 -0.421875 -1.109375q-0.421875 -0.53125 -1.140625 -0.8125q-0.40625 -0.171875 -1.390625 -0.234375q-0.453125 -0.03125 -0.703125 -0.28125q-0.25 -0.265625 -0.25 -0.640625q0 -0.40625 0.265625 -0.671875q0.28125 -0.28125 0.6875 -0.28125q0.9375 0 1.0 -0.015625q0.359375 -0.03125 0.71875 -0.234375q0.375 -0.203125 0.59375 -0.546875q0.234375 -0.359375 0.234375 -0.71875q0 -0.59375 -0.53125 -1.03125q-0.515625 -0.4375 -1.578125 -0.4375q-1.34375 0 -2.046875 0.78125q-0.21875 0.234375 -0.34375 0.296875q-0.1875 0.09375 -0.421875 0.09375q-0.390625 0 -0.671875 -0.265625q-0.265625 -0.265625 -0.265625 -0.671875q0 -0.625 0.84375 -1.21875q1.21875 -0.875 3.046875 -0.875q1.734375 0 2.78125 0.984375q1.046875 0.984375 1.046875 2.375q0 0.71875 -0.3125 1.34375q-0.3125 0.625 -0.921875 1.15625zm6.9611816 -3.6875l0 2.21875q1.03125 -0.328125 1.875 -0.328125q1.734375 0 2.859375 1.1875q1.140625 1.171875 1.140625 3.03125q0 1.90625 -1.15625 3.0q-1.140625 1.078125 -3.515625 1.078125q-2.09375 0 -3.328125 -0.78125q-0.703125 -0.453125 -0.703125 -1.046875q0 -0.375 0.28125 -0.65625q0.28125 -0.28125 0.65625 -0.28125q0.3125 0 0.6875 0.3125q0.375 0.296875 0.78125 0.421875q0.59375 0.171875 1.5 0.171875q1.703125 0 2.3125 -0.53125q0.625 -0.546875 0.625 -1.671875q0 -1.109375 -0.609375 -1.734375q-0.59375 -0.625 -1.53125 -0.625q-1.0 0 -2.296875 0.65625q-0.296875 0.15625 -0.515625 0.15625q-0.390625 0 -0.671875 -0.296875q-0.265625 -0.296875 -0.265625 -0.75l0 -5.390625l5.71875 0q0.671875 0 0.953125 0.265625q0.296875 0.25 0.296875 0.671875q0 0.40625 -0.296875 0.671875q-0.28125 0.25 -0.953125 0.25l-3.84375 0z" fill-rule="nonzero"/><path fill="#000000" fill-opacity="0.0" d="m502.50262 407.20734l0 0c0 -29.675507 24.056763 -53.73227 53.7323 -53.73227l0 0c14.250671 0 27.917664 5.661072 37.994446 15.7378235c10.076782 10.076752 15.737793 23.743774 15.737793 37.994446l0 0c0 29.675537 -24.056763 53.7323 -53.73224 53.7323l0 0c-29.675537 0 -53.7323 -24.056763 -53.7323 -53.7323z" fill-rule="evenodd"/><path stroke="#ffffff" stroke-width="2.0" stroke-linejoin="round" stroke-linecap="butt" d="m502.50262 407.20734l0 0c0 -29.675507 24.056763 -53.73227 53.7323 -53.73227l0 0c14.250671 0 27.917664 5.661072 37.994446 15.7378235c10.076782 10.076752 15.737793 23.743774 15.737793 37.994446l0 0c0 29.675537 -24.056763 53.7323 -53.73224 53.7323l0 0c-29.675537 0 -53.7323 -24.056763 -53.7323 -53.7323z" fill-rule="evenodd"/><path fill="#ffffff" d="m538.10535 404.95547l0 5.296875q0 1.71875 -1.25 2.9375q-1.234375 1.203125 -2.984375 1.203125q-0.859375 0 -1.625 -0.296875q-0.75 -0.3125 -1.359375 -0.890625q-0.609375 -0.59375 -0.953125 -1.234375q-0.328125 -0.65625 -0.328125 -1.71875l0 -5.296875q-0.59375 0 -0.875 -0.265625q-0.28125 -0.265625 -0.28125 -0.671875q0 -0.421875 0.28125 -0.671875q0.28125 -0.265625 0.96875 -0.265625l2.453125 0q0.671875 0 0.953125 0.265625q0.28125 0.25 0.28125 0.671875q0 0.421875 -0.28125 0.6875q-0.28125 0.25 -0.953125 0.25l-0.6875 0l0 5.453125q0 0.84375 0.703125 1.484375q0.703125 0.640625 1.6875 0.640625q0.65625 0 1.21875 -0.3125q0.578125 -0.3125 0.9375 -0.90625q0.234375 -0.359375 0.234375 -0.90625l0 -5.453125l-0.671875 0q-0.671875 0 -0.96875 -0.25q-0.28125 -0.265625 -0.28125 -0.6875q0 -0.421875 0.28125 -0.671875q0.296875 -0.265625 0.96875 -0.265625l2.453125 0q0.671875 0 0.953125 0.265625q0.28125 0.25 0.28125 0.671875q0 0.40625 -0.28125 0.671875q-0.28125 0.265625 -0.875 0.265625zm10.851807 4.71875l-7.796875 0l0 -1.703125l7.796875 0l0 1.703125zm5.5393677 2.578125l4.078125 0q0.34375 -0.265625 0.640625 -0.265625q0.4375 0 0.6875 0.28125q0.25 0.28125 0.25 0.96875l0 0.890625l-8.515625 0l0 -1.984375q5.046875 -4.15625 6.09375 -5.34375q0.53125 -0.609375 0.53125 -1.15625q0 -0.6875 -0.59375 -1.203125q-0.59375 -0.53125 -1.59375 -0.53125q-1.0 0 -1.671875 0.578125q-0.34375 0.3125 -0.546875 0.921875q-0.125 0.390625 -0.359375 0.5625q-0.21875 0.15625 -0.546875 0.15625q-0.375 0 -0.65625 -0.265625q-0.28125 -0.28125 -0.28125 -0.65625q0 -0.546875 0.5 -1.359375q0.515625 -0.828125 1.484375 -1.3125q0.96875 -0.5 2.109375 -0.5q1.765625 0 2.890625 1.078125q1.125 1.0625 1.125 2.59375q0 0.765625 -0.328125 1.4375q-0.3125 0.65625 -1.546875 1.8125q-0.953125 0.921875 -3.75 3.296875zm15.601807 -4.359375q0.828125 0.5625 1.234375 1.3125q0.40625 0.734375 0.40625 1.65625q0 0.984375 -0.546875 1.828125q-0.53125 0.84375 -1.5625 1.28125q-1.03125 0.421875 -2.703125 0.421875q-2.15625 0 -3.25 -0.671875q-0.609375 -0.375 -0.609375 -0.90625q0 -0.40625 0.265625 -0.671875q0.265625 -0.28125 0.65625 -0.28125q0.25 0 0.546875 0.171875q0.390625 0.28125 0.75 0.375q0.546875 0.125 1.5 0.125q1.640625 0 2.359375 -0.421875q0.734375 -0.421875 0.734375 -1.203125q0 -0.578125 -0.421875 -1.109375q-0.421875 -0.53125 -1.140625 -0.8125q-0.40625 -0.171875 -1.390625 -0.234375q-0.453125 -0.03125 -0.703125 -0.28125q-0.25 -0.265625 -0.25 -0.640625q0 -0.40625 0.265625 -0.671875q0.28125 -0.28125 0.6875 -0.28125q0.9375 0 1.0 -0.015625q0.359375 -0.03125 0.71875 -0.234375q0.375 -0.203125 0.59375 -0.546875q0.234375 -0.359375 0.234375 -0.71875q0 -0.59375 -0.53125 -1.03125q-0.515625 -0.4375 -1.578125 -0.4375q-1.34375 0 -2.046875 0.78125q-0.21875 0.234375 -0.34375 0.296875q-0.1875 0.09375 -0.421875 0.09375q-0.390625 0 -0.671875 -0.265625q-0.265625 -0.265625 -0.265625 -0.671875q0 -0.625 0.84375 -1.21875q1.21875 -0.875 3.046875 -0.875q1.734375 0 2.78125 0.984375q1.046875 0.984375 1.046875 2.375q0 0.71875 -0.3125 1.34375q-0.3125 0.625 -0.921875 1.15625zm6.9611816 -3.6875l0 2.21875q1.03125 -0.328125 1.875 -0.328125q1.734375 0 2.859375 1.1875q1.140625 1.171875 1.140625 3.03125q0 1.90625 -1.15625 3.0q-1.140625 1.078125 -3.515625 1.078125q-2.09375 0 -3.328125 -0.78125q-0.703125 -0.453125 -0.703125 -1.046875q0 -0.375 0.28125 -0.65625q0.28125 -0.28125 0.65625 -0.28125q0.3125 0 0.6875 0.3125q0.375 0.296875 0.78125 0.421875q0.59375 0.171875 1.5 0.171875q1.703125 0 2.3125 -0.53125q0.625 -0.546875 0.625 -1.671875q0 -1.109375 -0.609375 -1.734375q-0.59375 -0.625 -1.53125 -0.625q-1.0 0 -2.296875 0.65625q-0.296875 0.15625 -0.515625 0.15625q-0.390625 0 -0.671875 -0.296875q-0.265625 -0.296875 -0.265625 -0.75l0 -5.390625l5.71875 0q0.671875 0 0.953125 0.265625q0.296875 0.25 0.296875 0.671875q0 0.40625 -0.296875 0.671875q-0.28125 0.25 -0.953125 0.25l-3.84375 0z" fill-rule="nonzero"/><path fill="#000000" fill-opacity="0.0" d="m284.52887 126.402885l0 0c0 -29.675522 24.056763 -53.732285 53.7323 -53.732285l0 0c14.250671 0 27.917694 5.661064 37.994446 15.7378235c10.076752 10.076759 15.7378235 23.743774 15.7378235 37.99446l0 0c0 29.67553 -24.056763 53.732292 -53.73227 53.732292l0 0c-29.675537 0 -53.7323 -24.056763 -53.7323 -53.732292z" fill-rule="evenodd"/><path stroke="#ffffff" stroke-width="2.0" stroke-linejoin="round" stroke-linecap="butt" d="m284.52887 126.402885l0 0c0 -29.675522 24.056763 -53.732285 53.7323 -53.732285l0 0c14.250671 0 27.917694 5.661064 37.994446 15.7378235c10.076752 10.076759 15.7378235 23.743774 15.7378235 37.99446l0 0c0 29.67553 -24.056763 53.732292 -53.73227 53.732292l0 0c-29.675537 0 -53.7323 -24.056763 -53.7323 -53.732292z" fill-rule="evenodd"/><path fill="#ffffff" d="m320.1316 124.15101l0 5.2968826q0 1.71875 -1.25 2.9375q-1.234375 1.203125 -2.984375 1.203125q-0.859375 0 -1.625 -0.296875q-0.75 -0.3125 -1.359375 -0.890625q-0.609375 -0.59375 -0.953125 -1.234375q-0.328125 -0.65625 -0.328125 -1.71875l0 -5.2968826q-0.59375 0 -0.875 -0.265625q-0.28125 -0.265625 -0.28125 -0.671875q0 -0.421875 0.28125 -0.671875q0.28125 -0.265625 0.96875 -0.265625l2.453125 0q0.671875 0 0.953125 0.265625q0.28125 0.25 0.28125 0.671875q0 0.421875 -0.28125 0.6875q-0.28125 0.25 -0.953125 0.25l-0.6875 0l0 5.4531326q0 0.84375 0.703125 1.484375q0.703125 0.640625 1.6875 0.640625q0.65625 0 1.21875 -0.3125q0.578125 -0.3125 0.9375 -0.90625q0.234375 -0.359375 0.234375 -0.90625l0 -5.4531326l-0.671875 0q-0.671875 0 -0.96875 -0.25q-0.28125 -0.265625 -0.28125 -0.6875q0 -0.421875 0.28125 -0.671875q0.296875 -0.265625 0.96875 -0.265625l2.453125 0q0.671875 0 0.953125 0.265625q0.28125 0.25 0.28125 0.671875q0 0.40625 -0.28125 0.671875q-0.28125 0.265625 -0.875 0.265625zm10.851837 4.7187576l-7.796875 0l0 -1.7031326l7.796875 0l0 1.7031326zm5.5393066 2.578125l4.078125 0q0.34375 -0.265625 0.640625 -0.265625q0.4375 0 0.6875 0.28125q0.25 0.28125 0.25 0.96875l0 0.890625l-8.515625 0l0 -1.984375q5.046875 -4.1562576 6.09375 -5.3437576q0.53125 -0.609375 0.53125 -1.15625q0 -0.6875 -0.59375 -1.203125q-0.59375 -0.53125 -1.59375 -0.53125q-1.0 0 -1.671875 0.578125q-0.34375 0.3125 -0.546875 0.921875q-0.125 0.390625 -0.359375 0.5625q-0.21875 0.15625 -0.546875 0.15625q-0.375 0 -0.65625 -0.265625q-0.28125 -0.28125 -0.28125 -0.65625q0 -0.546875 0.5 -1.359375q0.515625 -0.828125 1.484375 -1.3125q0.96875 -0.5 2.109375 -0.5q1.765625 0 2.890625 1.078125q1.125 1.0625 1.125 2.59375q0 0.765625 -0.328125 1.4375q-0.3125 0.65625 -1.546875 1.8125076q-0.953125 0.921875 -3.75 3.296875zm15.601837 -4.3593826q0.828125 0.5625 1.234375 1.3125076q0.40625 0.734375 0.40625 1.65625q0 0.984375 -0.546875 1.828125q-0.53125 0.84375 -1.5625 1.28125q-1.03125 0.421875 -2.703125 0.421875q-2.15625 0 -3.25 -0.671875q-0.609375 -0.375 -0.609375 -0.90625q0 -0.40625 0.265625 -0.671875q0.265625 -0.28125 0.65625 -0.28125q0.25 0 0.546875 0.171875q0.390625 0.28125 0.75 0.375q0.546875 0.125 1.5 0.125q1.640625 0 2.359375 -0.421875q0.734375 -0.421875 0.734375 -1.203125q0 -0.578125 -0.421875 -1.109375q-0.421875 -0.53125 -1.140625 -0.8125q-0.40625 -0.171875 -1.390625 -0.23438263q-0.453125 -0.03125 -0.703125 -0.28125q-0.25 -0.265625 -0.25 -0.640625q0 -0.40625 0.265625 -0.671875q0.28125 -0.28125 0.6875 -0.28125q0.9375 0 1.0 -0.015625q0.359375 -0.03125 0.71875 -0.234375q0.375 -0.203125 0.59375 -0.546875q0.234375 -0.359375 0.234375 -0.71875q0 -0.59375 -0.53125 -1.03125q-0.515625 -0.4375 -1.578125 -0.4375q-1.34375 0 -2.046875 0.78125q-0.21875 0.234375 -0.34375 0.296875q-0.1875 0.09375 -0.421875 0.09375q-0.390625 0 -0.671875 -0.265625q-0.265625 -0.265625 -0.265625 -0.671875q0 -0.625 0.84375 -1.21875q1.21875 -0.875 3.046875 -0.875q1.734375 0 2.78125 0.984375q1.046875 0.984375 1.046875 2.375q0 0.71875 -0.3125 1.34375q-0.3125 0.625 -0.921875 1.15625zm6.9611816 -3.6875l0 2.21875q1.03125 -0.328125 1.875 -0.328125q1.734375 0 2.859375 1.1875q1.140625 1.171875 1.140625 3.0312576q0 1.90625 -1.15625 3.0q-1.140625 1.078125 -3.515625 1.078125q-2.09375 0 -3.328125 -0.78125q-0.703125 -0.453125 -0.703125 -1.046875q0 -0.375 0.28125 -0.65625q0.28125 -0.28125 0.65625 -0.28125q0.3125 0 0.6875 0.3125q0.375 0.296875 0.78125 0.421875q0.59375 0.171875 1.5 0.171875q1.703125 0 2.3125 -0.53125q0.625 -0.546875 0.625 -1.671875q0 -1.109375 -0.609375 -1.7343826q-0.59375 -0.625 -1.53125 -0.625q-1.0 0 -2.296875 0.65625q-0.296875 0.15625 -0.515625 0.15625q-0.390625 0 -0.671875 -0.296875q-0.265625 -0.296875 -0.265625 -0.75l0 -5.390625l5.71875 0q0.671875 0 0.953125 0.265625q0.296875 0.25 0.296875 0.671875q0 0.40625 -0.296875 0.671875q-0.28125 0.25 -0.953125 0.25l-3.84375 0z" fill-rule="nonzero"/><path fill="#000000" fill-opacity="0.0" d="m284.52887 350.80447l0 0c0 -29.675537 24.056763 -53.7323 53.7323 -53.7323l0 0c14.250671 0 27.917694 5.661072 37.994446 15.7378235c10.076752 10.076752 15.7378235 23.743774 15.7378235 37.994476l0 0c0 29.675507 -24.056763 53.73227 -53.73227 53.73227l0 0c-29.675537 0 -53.7323 -24.056763 -53.7323 -53.73227z" fill-rule="evenodd"/><path stroke="#ffffff" stroke-width="2.0" stroke-linejoin="round" stroke-linecap="butt" d="m284.52887 350.80447l0 0c0 -29.675537 24.056763 -53.7323 53.7323 -53.7323l0 0c14.250671 0 27.917694 5.661072 37.994446 15.7378235c10.076752 10.076752 15.7378235 23.743774 15.7378235 37.994476l0 0c0 29.675507 -24.056763 53.73227 -53.73227 53.73227l0 0c-29.675537 0 -53.7323 -24.056763 -53.7323 -53.73227z" fill-rule="evenodd"/><path fill="#ffffff" d="m320.1316 348.55258l0 5.296875q0 1.71875 -1.25 2.9375q-1.234375 1.203125 -2.984375 1.203125q-0.859375 0 -1.625 -0.296875q-0.75 -0.3125 -1.359375 -0.890625q-0.609375 -0.59375 -0.953125 -1.234375q-0.328125 -0.65625 -0.328125 -1.71875l0 -5.296875q-0.59375 0 -0.875 -0.265625q-0.28125 -0.265625 -0.28125 -0.671875q0 -0.421875 0.28125 -0.671875q0.28125 -0.265625 0.96875 -0.265625l2.453125 0q0.671875 0 0.953125 0.265625q0.28125 0.25 0.28125 0.671875q0 0.421875 -0.28125 0.6875q-0.28125 0.25 -0.953125 0.25l-0.6875 0l0 5.453125q0 0.84375 0.703125 1.484375q0.703125 0.640625 1.6875 0.640625q0.65625 0 1.21875 -0.3125q0.578125 -0.3125 0.9375 -0.90625q0.234375 -0.359375 0.234375 -0.90625l0 -5.453125l-0.671875 0q-0.671875 0 -0.96875 -0.25q-0.28125 -0.265625 -0.28125 -0.6875q0 -0.421875 0.28125 -0.671875q0.296875 -0.265625 0.96875 -0.265625l2.453125 0q0.671875 0 0.953125 0.265625q0.28125 0.25 0.28125 0.671875q0 0.40625 -0.28125 0.671875q-0.28125 0.265625 -0.875 0.265625zm10.851837 4.71875l-7.796875 0l0 -1.703125l7.796875 0l0 1.703125zm5.5393066 2.578125l4.078125 0q0.34375 -0.265625 0.640625 -0.265625q0.4375 0 0.6875 0.28125q0.25 0.28125 0.25 0.96875l0 0.890625l-8.515625 0l0 -1.984375q5.046875 -4.15625 6.09375 -5.34375q0.53125 -0.609375 0.53125 -1.15625q0 -0.6875 -0.59375 -1.203125q-0.59375 -0.53125 -1.59375 -0.53125q-1.0 0 -1.671875 0.578125q-0.34375 0.3125 -0.546875 0.921875q-0.125 0.390625 -0.359375 0.5625q-0.21875 0.15625 -0.546875 0.15625q-0.375 0 -0.65625 -0.265625q-0.28125 -0.28125 -0.28125 -0.65625q0 -0.546875 0.5 -1.359375q0.515625 -0.828125 1.484375 -1.3125q0.96875 -0.5 2.109375 -0.5q1.765625 0 2.890625 1.078125q1.125 1.0625 1.125 2.59375q0 0.765625 -0.328125 1.4375q-0.3125 0.65625 -1.546875 1.8125q-0.953125 0.921875 -3.75 3.296875zm15.601837 -4.359375q0.828125 0.5625 1.234375 1.3125q0.40625 0.734375 0.40625 1.65625q0 0.984375 -0.546875 1.828125q-0.53125 0.84375 -1.5625 1.28125q-1.03125 0.421875 -2.703125 0.421875q-2.15625 0 -3.25 -0.671875q-0.609375 -0.375 -0.609375 -0.90625q0 -0.40625 0.265625 -0.671875q0.265625 -0.28125 0.65625 -0.28125q0.25 0 0.546875 0.171875q0.390625 0.28125 0.75 0.375q0.546875 0.125 1.5 0.125q1.640625 0 2.359375 -0.421875q0.734375 -0.421875 0.734375 -1.203125q0 -0.578125 -0.421875 -1.109375q-0.421875 -0.53125 -1.140625 -0.8125q-0.40625 -0.171875 -1.390625 -0.234375q-0.453125 -0.03125 -0.703125 -0.28125q-0.25 -0.265625 -0.25 -0.640625q0 -0.40625 0.265625 -0.671875q0.28125 -0.28125 0.6875 -0.28125q0.9375 0 1.0 -0.015625q0.359375 -0.03125 0.71875 -0.234375q0.375 -0.203125 0.59375 -0.546875q0.234375 -0.359375 0.234375 -0.71875q0 -0.59375 -0.53125 -1.03125q-0.515625 -0.4375 -1.578125 -0.4375q-1.34375 0 -2.046875 0.78125q-0.21875 0.234375 -0.34375 0.296875q-0.1875 0.09375 -0.421875 0.09375q-0.390625 0 -0.671875 -0.265625q-0.265625 -0.265625 -0.265625 -0.671875q0 -0.625 0.84375 -1.21875q1.21875 -0.875 3.046875 -0.875q1.734375 0 2.78125 0.984375q1.046875 0.984375 1.046875 2.375q0 0.71875 -0.3125 1.34375q-0.3125 0.625 -0.921875 1.15625zm6.9611816 -3.6875l0 2.21875q1.03125 -0.328125 1.875 -0.328125q1.734375 0 2.859375 1.1875q1.140625 1.171875 1.140625 3.03125q0 1.90625 -1.15625 3.0q-1.140625 1.078125 -3.515625 1.078125q-2.09375 0 -3.328125 -0.78125q-0.703125 -0.453125 -0.703125 -1.046875q0 -0.375 0.28125 -0.65625q0.28125 -0.28125 0.65625 -0.28125q0.3125 0 0.6875 0.3125q0.375 0.296875 0.78125 0.421875q0.59375 0.171875 1.5 0.171875q1.703125 0 2.3125 -0.53125q0.625 -0.546875 0.625 -1.671875q0 -1.109375 -0.609375 -1.734375q-0.59375 -0.625 -1.53125 -0.625q-1.0 0 -2.296875 0.65625q-0.296875 0.15625 -0.515625 0.15625q-0.390625 0 -0.671875 -0.296875q-0.265625 -0.296875 -0.265625 -0.75l0 -5.390625l5.71875 0q0.671875 0 0.953125 0.265625q0.296875 0.25 0.296875 0.671875q0 0.40625 -0.296875 0.671875q-0.28125 0.25 -0.953125 0.25l-3.84375 0z" fill-rule="nonzero"/><path fill="#000000" fill-opacity="0.0" d="m2.555118 238.60367l0 0c0 -29.675522 24.056763 -53.732285 53.732285 -53.732285l0 0c14.250683 0 27.917706 5.661072 37.994457 15.7378235c10.076759 10.076767 15.7378235 23.743774 15.7378235 37.99446l0 0c0 29.675537 -24.056763 53.7323 -53.73228 53.7323l0 0c-29.675522 0 -53.732285 -24.056763 -53.732285 -53.7323z" fill-rule="evenodd"/><path stroke="#ffffff" stroke-width="2.0" stroke-linejoin="round" stroke-linecap="butt" d="m2.555118 238.60367l0 0c0 -29.675522 24.056763 -53.732285 53.732285 -53.732285l0 0c14.250683 0 27.917706 5.661072 37.994457 15.7378235c10.076759 10.076767 15.7378235 23.743774 15.7378235 37.99446l0 0c0 29.675537 -24.056763 53.7323 -53.73228 53.7323l0 0c-29.675522 0 -53.732285 -24.056763 -53.732285 -53.7323z" fill-rule="evenodd"/><path fill="#ffffff" d="m38.157845 236.35179l0 5.296875q0 1.71875 -1.25 2.9375q-1.234375 1.203125 -2.984375 1.203125q-0.859375 0 -1.625 -0.296875q-0.7499981 -0.3125 -1.3593731 -0.890625q-0.609375 -0.59375 -0.953125 -1.234375q-0.328125 -0.65625 -0.328125 -1.71875l0 -5.296875q-0.59375 0 -0.875 -0.265625q-0.28125 -0.265625 -0.28125 -0.671875q0 -0.421875 0.28125 -0.671875q0.28125 -0.265625 0.96875 -0.265625l2.453123 0q0.671875 0 0.953125 0.265625q0.28125 0.25 0.28125 0.671875q0 0.421875 -0.28125 0.6875q-0.28125 0.25 -0.953125 0.25l-0.6874981 0l0 5.453125q0 0.84375 0.7031231 1.484375q0.703125 0.640625 1.6875 0.640625q0.65625 0 1.21875 -0.3125q0.578125 -0.3125 0.9375 -0.90625q0.234375 -0.359375 0.234375 -0.90625l0 -5.453125l-0.671875 0q-0.671875 0 -0.96875 -0.25q-0.28125 -0.265625 -0.28125 -0.6875q0 -0.421875 0.28125 -0.671875q0.296875 -0.265625 0.96875 -0.265625l2.453125 0q0.671875 0 0.953125 0.265625q0.28125 0.25 0.28125 0.671875q0 0.40625 -0.28125 0.671875q-0.28125 0.265625 -0.875 0.265625zm10.851822 4.71875l-7.796875 0l0 -1.703125l7.796875 0l0 1.703125zm5.539322 2.578125l4.078125 0q0.34375 -0.265625 0.640625 -0.265625q0.4375 0 0.6875 0.28125q0.25 0.28125 0.25 0.96875l0 0.890625l-8.515625 0l0 -1.984375q5.046875 -4.15625 6.09375 -5.34375q0.53125 -0.609375 0.53125 -1.15625q0 -0.6875 -0.59375 -1.203125q-0.59375 -0.53125 -1.59375 -0.53125q-1.0 0 -1.671875 0.578125q-0.34375 0.3125 -0.546875 0.921875q-0.125 0.390625 -0.359375 0.5625q-0.21875 0.15625 -0.546875 0.15625q-0.375 0 -0.65625 -0.265625q-0.28125 -0.28125 -0.28125 -0.65625q0 -0.546875 0.5 -1.359375q0.515625 -0.828125 1.484375 -1.3125q0.96875 -0.5 2.109375 -0.5q1.765625 0 2.890625 1.078125q1.125 1.0625 1.125 2.59375q0 0.765625 -0.328125 1.4375q-0.3125 0.65625 -1.546875 1.8125q-0.953125 0.921875 -3.75 3.296875zm15.601822 -4.359375q0.828125 0.5625 1.234375 1.3125q0.40625 0.734375 0.40625 1.65625q0 0.984375 -0.546875 1.828125q-0.53125 0.84375 -1.5625 1.28125q-1.03125 0.421875 -2.703125 0.421875q-2.15625 0 -3.25 -0.671875q-0.609375 -0.375 -0.609375 -0.90625q0 -0.40625 0.265625 -0.671875q0.265625 -0.28125 0.65625 -0.28125q0.25 0 0.546875 0.171875q0.390625 0.28125 0.75 0.375q0.546875 0.125 1.5 0.125q1.640625 0 2.359375 -0.421875q0.734375 -0.421875 0.734375 -1.203125q0 -0.578125 -0.421875 -1.109375q-0.421875 -0.53125 -1.140625 -0.8125q-0.40625 -0.171875 -1.390625 -0.234375q-0.453125 -0.03125 -0.703125 -0.28125q-0.25 -0.265625 -0.25 -0.640625q0 -0.40625 0.265625 -0.671875q0.28125 -0.28125 0.6875 -0.28125q0.9375 0 1.0 -0.015625q0.359375 -0.03125 0.71875 -0.234375q0.375 -0.203125 0.59375 -0.546875q0.234375 -0.359375 0.234375 -0.71875q0 -0.59375 -0.53125 -1.03125q-0.515625 -0.4375 -1.578125 -0.4375q-1.34375 0 -2.046875 0.78125q-0.21875 0.234375 -0.34375 0.296875q-0.1875 0.09375 -0.421875 0.09375q-0.390625 0 -0.671875 -0.265625q-0.265625 -0.265625 -0.265625 -0.671875q0 -0.625 0.84375 -1.21875q1.21875 -0.875 3.046875 -0.875q1.734375 0 2.78125 0.984375q1.046875 0.984375 1.046875 2.375q0 0.71875 -0.3125 1.34375q-0.3125 0.625 -0.921875 1.15625zm6.961197 -3.6875l0 2.21875q1.03125 -0.328125 1.875 -0.328125q1.734375 0 2.859375 1.1875q1.140625 1.171875 1.140625 3.03125q0 1.90625 -1.15625 3.0q-1.140625 1.078125 -3.515625 1.078125q-2.09375 0 -3.328125 -0.78125q-0.703125 -0.453125 -0.703125 -1.046875q0 -0.375 0.28125 -0.65625q0.28125 -0.28125 0.65625 -0.28125q0.3125 0 0.6875 0.3125q0.375 0.296875 0.78125 0.421875q0.59375 0.171875 1.5 0.171875q1.703125 0 2.3125 -0.53125q0.625 -0.546875 0.625 -1.671875q0 -1.109375 -0.609375 -1.734375q-0.59375 -0.625 -1.53125 -0.625q-1.0 0 -2.296875 0.65625q-0.296875 0.15625 -0.515625 0.15625q-0.390625 0 -0.671875 -0.296875q-0.265625 -0.296875 -0.265625 -0.75l0 -5.390625l5.71875 0q0.671875 0 0.953125 0.265625q0.296875 0.25 0.296875 0.671875q0 0.40625 -0.296875 0.671875q-0.28125 0.25 -0.953125 0.25l-3.84375 0z" fill-rule="nonzero"/><path fill="#000000" fill-opacity="0.0" d="m110.019684 238.60367l174.51968 -112.18897" fill-rule="evenodd"/><path stroke="#ffffff" stroke-width="2.0" stroke-linejoin="round" stroke-linecap="butt" d="m110.019684 238.60367l164.42548 -105.69997" fill-rule="evenodd"/><path fill="#ffffff" stroke="#ffffff" stroke-width="2.0" stroke-linecap="butt" d="m276.2315 135.68251l5.848419 -7.6867676l-9.421112 2.1291351z" fill-rule="evenodd"/><path fill="#000000" fill-opacity="0.0" d="m110.019684 238.60367l174.51968 112.188995" fill-rule="evenodd"/><path stroke="#ffffff" stroke-width="2.0" stroke-linejoin="round" stroke-linecap="butt" d="m110.019684 238.60367l164.42548 105.69998" fill-rule="evenodd"/><path fill="#ffffff" stroke="#ffffff" stroke-width="2.0" stroke-linecap="butt" d="m272.6588 347.08246l9.421112 2.1291504l-5.848419 -7.6867676z" fill-rule="evenodd"/><path fill="#000000" fill-opacity="0.0" d="m391.99344 126.402885l110.519684 -56.409447" fill-rule="evenodd"/><path stroke="#ffffff" stroke-width="2.0" stroke-linejoin="round" stroke-linecap="butt" d="m391.99344 126.402885l99.83139 -50.954124" fill-rule="evenodd"/><path fill="#ffffff" stroke="#ffffff" stroke-width="2.0" stroke-linecap="butt" d="m493.32663 78.39112l6.5822754 -7.068489l-9.585846 1.1837616z" fill-rule="evenodd"/><path fill="#000000" fill-opacity="0.0" d="m391.99344 126.402885l110.519684 56.000008" fill-rule="evenodd"/><path stroke="#ffffff" stroke-width="2.0" stroke-linejoin="round" stroke-linecap="butt" d="m391.99344 126.402885l99.81537 50.576164" fill-rule="evenodd"/><path fill="#ffffff" stroke="#ffffff" stroke-width="2.0" stroke-linecap="butt" d="m490.3157 179.92583l9.589325 1.1555328l-6.6030884 -7.0490875z" fill-rule="evenodd"/><path fill="#000000" fill-opacity="0.0" d="m391.99344 350.80447l110.519684 -56.0" fill-rule="evenodd"/><path stroke="#ffffff" stroke-width="2.0" stroke-linejoin="round" stroke-linecap="butt" d="m391.99344 350.80447l99.81537 -50.57617" fill-rule="evenodd"/><path fill="#ffffff" stroke="#ffffff" stroke-width="2.0" stroke-linecap="butt" d="m493.30194 303.17508l6.6030884 -7.049103l-9.589325 1.1555481z" fill-rule="evenodd"/><path fill="#000000" fill-opacity="0.0" d="m391.99344 350.80447l110.519684 56.409424" fill-rule="evenodd"/><path stroke="#ffffff" stroke-width="2.0" stroke-linejoin="round" stroke-linecap="butt" d="m391.99344 350.80447l99.83139 50.9541" fill-rule="evenodd"/><path fill="#ffffff" stroke="#ffffff" stroke-width="2.0" stroke-linecap="butt" d="m490.32306 404.70096l9.585846 1.1837463l-6.5822754 -7.0684814z" fill-rule="evenodd"/><path fill="#000000" fill-opacity="0.0" d="m5.234908 434.67978l62.771652 0" fill-rule="evenodd"/><path stroke="#ffffff" stroke-width="2.0" stroke-linejoin="round" stroke-linecap="butt" d="m5.234908 434.67978l50.771652 0" fill-rule="evenodd"/><path fill="#ffffff" stroke="#ffffff" stroke-width="2.0" stroke-linecap="butt" d="m56.00656 437.98325l9.076195 -3.3034668l-9.076195 -3.3034668z" fill-rule="evenodd"/><path fill="#000000" fill-opacity="0.0" d="m68.00656 407.2152l226.36221 0l0 54.92914l-226.36221 0z" fill-rule="evenodd"/><path fill="#ffffff" d="m81.10031 423.79523l0 0.921875q0.921875 -0.671875 1.453125 -0.890625q0.53125 -0.21875 1.0 -0.21875q0.71875 0 1.390625 0.53125q0.453125 0.359375 0.453125 0.71875q0 0.328125 -0.21875 0.546875q-0.21875 0.203125 -0.515625 0.203125q-0.28125 0 -0.578125 -0.265625q-0.296875 -0.265625 -0.53125 -0.265625q-0.3125 0 -0.921875 0.390625q-0.609375 0.375 -1.53125 1.15625l0 2.203125l2.09375 0q0.53125 0 0.75 0.203125q0.21875 0.203125 0.21875 0.53125q0 0.328125 -0.21875 0.53125q-0.21875 0.203125 -0.75 0.203125l-4.4375 0q-0.53125 0 -0.765625 -0.203125q-0.21875 -0.203125 -0.21875 -0.53125q0 -0.328125 0.21875 -0.53125q0.234375 -0.203125 0.765625 -0.203125l0.875 0l0 -3.5625l-0.53125 0q-0.53125 0 -0.765625 -0.203125q-0.21875 -0.203125 -0.21875 -0.53125q0 -0.328125 0.21875 -0.53125q0.234375 -0.203125 0.765625 -0.203125l2.0 0zm12.779556 4.0l-6.015625 0q0.234375 0.5625 0.8125 0.921875q0.578125 0.34375 1.578125 0.34375q0.8125 0 2.171875 -0.34375q0.546875 -0.140625 0.765625 -0.140625q0.296875 0 0.5 0.203125q0.203125 0.203125 0.203125 0.515625q0 0.296875 -0.21875 0.484375q-0.296875 0.265625 -1.40625 0.515625q-1.09375 0.234375 -2.125 0.234375q-1.765625 0 -2.828125 -0.984375q-1.046875 -1.0 -1.046875 -2.453125q0 -1.546875 1.140625 -2.515625q1.140625 -0.96875 2.640625 -0.96875q0.890625 0 1.640625 0.3125q0.75 0.3125 1.109375 0.671875q0.515625 0.53125 0.84375 1.3125q0.234375 0.546875 0.234375 1.265625l0 0.625zm-1.625 -1.46875q-0.328125 -0.625 -0.875 -0.9375q-0.546875 -0.3125 -1.296875 -0.3125q-0.75 0 -1.296875 0.3125q-0.53125 0.3125 -0.875 0.9375l4.34375 0zm4.9201813 3.15625l0 2.40625l0.875 0q0.53125 0 0.75 0.203125q0.234375 0.203125 0.234375 0.53125q0 0.328125 -0.234375 0.53125q-0.21875 0.203125 -0.75 0.203125l-2.59375 0q-0.53125 0 -0.765625 -0.203125q-0.21875 -0.203125 -0.21875 -0.53125q0 -0.328125 0.234375 -0.53125q0.234375 -0.203125 0.75 -0.203125l0.25 0l0 -6.625l-0.25 0q-0.53125 0 -0.765625 -0.203125q-0.21875 -0.203125 -0.21875 -0.53125q0 -0.328125 0.21875 -0.53125q0.234375 -0.203125 0.765625 -0.203125l1.71875 0l0 0.5q0.515625 -0.34375 1.0625 -0.515625q0.546875 -0.171875 1.125 -0.171875q1.515625 0 2.5625 1.015625q1.0625 1.015625 1.0625 2.34375q0 1.453125 -1.25 2.390625q-1.046875 0.78125 -2.359375 0.78125q-0.5625 0 -1.109375 -0.15625q-0.546875 -0.171875 -1.09375 -0.5zm4.34375 -2.515625q0 -0.3125 -0.25 -0.78125q-0.234375 -0.484375 -0.734375 -0.796875q-0.5 -0.3125 -1.1875 -0.3125q-1.09375 0 -1.734375 0.8125q-0.4375 0.578125 -0.4375 1.09375q0 0.578125 0.625 1.140625q0.625 0.546875 1.546875 0.546875q0.9375 0 1.546875 -0.546875q0.625 -0.546875 0.625 -1.15625zm5.9670563 -3.171875l0 0.921875q0.921875 -0.671875 1.453125 -0.890625q0.53125 -0.21875 1.0 -0.21875q0.71875 0 1.390625 0.53125q0.453125 0.359375 0.453125 0.71875q0 0.328125 -0.21875 0.546875q-0.21875 0.203125 -0.515625 0.203125q-0.28125 0 -0.578125 -0.265625q-0.296875 -0.265625 -0.53125 -0.265625q-0.3125 0 -0.921875 0.390625q-0.609375 0.375 -1.53125 1.15625l0 2.203125l2.09375 0q0.53125 0 0.75 0.203125q0.21875 0.203125 0.21875 0.53125q0 0.328125 -0.21875 0.53125q-0.21875 0.203125 -0.75 0.203125l-4.4375 0q-0.53125 0 -0.765625 -0.203125q-0.21875 -0.203125 -0.21875 -0.53125q0 -0.328125 0.21875 -0.53125q0.234375 -0.203125 0.765625 -0.203125l0.875 0l0 -3.5625l-0.53125 0q-0.53125 0 -0.765625 -0.203125q-0.21875 -0.203125 -0.21875 -0.53125q0 -0.328125 0.21875 -0.53125q0.234375 -0.203125 0.765625 -0.203125l2.0 0zm12.779556 4.0l-6.015625 0q0.234375 0.5625 0.8125 0.921875q0.578125 0.34375 1.578125 0.34375q0.8125 0 2.171875 -0.34375q0.546875 -0.140625 0.765625 -0.140625q0.296875 0 0.5 0.203125q0.203125 0.203125 0.203125 0.515625q0 0.296875 -0.21875 0.484375q-0.296875 0.265625 -1.40625 0.515625q-1.09375 0.234375 -2.125 0.234375q-1.765625 0 -2.828125 -0.984375q-1.046875 -1.0 -1.046875 -2.453125q0 -1.546875 1.140625 -2.515625q1.140625 -0.96875 2.640625 -0.96875q0.890625 0 1.640625 0.3125q0.75 0.3125 1.109375 0.671875q0.515625 0.53125 0.84375 1.3125q0.234375 0.546875 0.234375 1.265625l0 0.625zm-1.625 -1.46875q-0.328125 -0.625 -0.875 -0.9375q-0.546875 -0.3125 -1.296875 -0.3125q-0.75 0 -1.296875 0.3125q-0.53125 0.3125 -0.875 0.9375l4.34375 0zm8.326431 -0.8125q-0.359375 -0.21875 -0.75 -0.328125q-0.390625 -0.109375 -0.828125 -0.109375q-0.84375 0 -1.34375 0.28125q-0.234375 0.109375 -0.234375 0.25q0 0.171875 0.3125 0.328125q0.21875 0.109375 1.015625 0.21875q1.46875 0.203125 2.03125 0.40625q0.75 0.265625 1.15625 0.796875q0.40625 0.515625 0.40625 1.09375q0 0.78125 -0.6875 1.3125q-1.0 0.765625 -2.578125 0.765625q-0.640625 0 -1.1875 -0.109375q-0.53125 -0.109375 -0.984375 -0.328125q-0.109375 0.09375 -0.234375 0.15625q-0.125 0.046875 -0.25 0.046875q-0.34375 0 -0.546875 -0.21875q-0.203125 -0.234375 -0.203125 -0.765625l0 -0.5q0 -0.53125 0.203125 -0.75q0.203125 -0.234375 0.53125 -0.234375q0.265625 0 0.4375 0.15625q0.1875 0.140625 0.296875 0.5q0.328125 0.28125 0.796875 0.4375q0.484375 0.140625 1.09375 0.140625q1.015625 0 1.5625 -0.3125q0.265625 -0.15625 0.265625 -0.328125q0 -0.28125 -0.375 -0.46875q-0.375 -0.1875 -1.5625 -0.3125q-1.765625 -0.1875 -2.375 -0.71875q-0.59375 -0.53125 -0.59375 -1.296875q0 -0.78125 0.671875 -1.296875q0.90625 -0.71875 2.359375 -0.71875q0.515625 0 0.984375 0.09375q0.46875 0.09375 0.890625 0.296875q0.140625 -0.09375 0.25 -0.140625q0.125 -0.0625 0.21875 -0.0625q0.3125 0 0.5 0.234375q0.203125 0.21875 0.203125 0.75l0 0.359375q0 0.46875 -0.109375 0.640625q-0.234375 0.34375 -0.625 0.34375q-0.265625 0 -0.46875 -0.171875q-0.1875 -0.171875 -0.25 -0.4375zm10.888931 2.28125l-6.015625 0q0.234375 0.5625 0.8125 0.921875q0.578125 0.34375 1.578125 0.34375q0.8125 0 2.171875 -0.34375q0.546875 -0.140625 0.765625 -0.140625q0.296875 0 0.5 0.203125q0.203125 0.203125 0.203125 0.515625q0 0.296875 -0.21875 0.484375q-0.296875 0.265625 -1.40625 0.515625q-1.09375 0.234375 -2.125 0.234375q-1.765625 0 -2.828125 -0.984375q-1.046875 -1.0 -1.046875 -2.453125q0 -1.546875 1.140625 -2.515625q1.140625 -0.96875 2.640625 -0.96875q0.890625 0 1.640625 0.3125q0.75 0.3125 1.109375 0.671875q0.515625 0.53125 0.84375 1.3125q0.234375 0.546875 0.234375 1.265625l0 0.625zm-1.625 -1.46875q-0.328125 -0.625 -0.875 -0.9375q-0.546875 -0.3125 -1.296875 -0.3125q-0.75 0 -1.296875 0.3125q-0.53125 0.3125 -0.875 0.9375l4.34375 0zm5.2483063 -2.53125l0 0.5q0.40625 -0.34375 0.890625 -0.515625q0.484375 -0.171875 1.046875 -0.171875q1.296875 0 2.0625 0.8125q0.59375 0.640625 0.59375 1.6875l0 2.71875q0.46875 0 0.6875 0.203125q0.234375 0.203125 0.234375 0.53125q0 0.328125 -0.234375 0.53125q-0.21875 0.203125 -0.75 0.203125l-1.328125 0q-0.53125 0 -0.765625 -0.203125q-0.21875 -0.203125 -0.21875 -0.53125q0 -0.328125 0.21875 -0.53125q0.234375 -0.203125 0.703125 -0.203125l0 -2.765625q0 -0.484375 -0.265625 -0.703125q-0.328125 -0.28125 -1.015625 -0.28125q-0.5 0 -0.890625 0.203125q-0.375 0.1875 -0.96875 0.828125l0 2.71875q0.578125 0 0.734375 0.109375q0.359375 0.21875 0.359375 0.625q0 0.328125 -0.234375 0.53125q-0.21875 0.203125 -0.75 0.203125l-1.671875 0q-0.53125 0 -0.765625 -0.203125q-0.21875 -0.203125 -0.21875 -0.53125q0 -0.40625 0.34375 -0.625q0.171875 -0.109375 0.75 -0.109375l0 -3.5625q-0.46875 0 -0.703125 -0.203125q-0.21875 -0.21875 -0.21875 -0.53125q0 -0.328125 0.21875 -0.53125q0.234375 -0.203125 0.765625 -0.203125l1.390625 0zm9.920181 1.46875l0 2.9375q0 0.46875 0.203125 0.625q0.296875 0.234375 1.0625 0.234375q1.125 0 2.078125 -0.46875q0.375 -0.1875 0.578125 -0.1875q0.28125 0 0.484375 0.21875q0.21875 0.203125 0.21875 0.515625q0 0.28125 -0.21875 0.484375q-0.359375 0.34375 -1.390625 0.625q-1.03125 0.28125 -1.75 0.28125q-1.359375 0 -2.046875 -0.578125q-0.6875 -0.59375 -0.6875 -1.453125l0 -3.234375l-0.515625 0q-0.53125 0 -0.765625 -0.203125q-0.21875 -0.203125 -0.21875 -0.53125q0 -0.328125 0.21875 -0.53125q0.234375 -0.203125 0.765625 -0.203125l0.515625 0l0 -1.328125q0 -0.515625 0.203125 -0.734375q0.21875 -0.234375 0.546875 -0.234375q0.3125 0 0.515625 0.234375q0.203125 0.21875 0.203125 0.734375l0 1.328125l2.71875 0q0.53125 0 0.75 0.203125q0.234375 0.203125 0.234375 0.53125q0 0.328125 -0.234375 0.53125q-0.21875 0.203125 -0.75 0.203125l-2.71875 0zm10.748306 0.25q-0.359375 -0.21875 -0.75 -0.328125q-0.390625 -0.109375 -0.828125 -0.109375q-0.84375 0 -1.34375 0.28125q-0.234375 0.109375 -0.234375 0.25q0 0.171875 0.3125 0.328125q0.21875 0.109375 1.015625 0.21875q1.46875 0.203125 2.03125 0.40625q0.75 0.265625 1.15625 0.796875q0.40625 0.515625 0.40625 1.09375q0 0.78125 -0.6875 1.3125q-1.0 0.765625 -2.578125 0.765625q-0.640625 0 -1.1875 -0.109375q-0.53125 -0.109375 -0.984375 -0.328125q-0.109375 0.09375 -0.234375 0.15625q-0.125 0.046875 -0.25 0.046875q-0.34375 0 -0.546875 -0.21875q-0.203125 -0.234375 -0.203125 -0.765625l0 -0.5q0 -0.53125 0.203125 -0.75q0.203125 -0.234375 0.53125 -0.234375q0.265625 0 0.4375 0.15625q0.1875 0.140625 0.296875 0.5q0.328125 0.28125 0.796875 0.4375q0.484375 0.140625 1.09375 0.140625q1.015625 0 1.5625 -0.3125q0.265625 -0.15625 0.265625 -0.328125q0 -0.28125 -0.375 -0.46875q-0.375 -0.1875 -1.5625 -0.3125q-1.765625 -0.1875 -2.375 -0.71875q-0.59375 -0.53125 -0.59375 -1.296875q0 -0.78125 0.671875 -1.296875q0.90625 -0.71875 2.359375 -0.71875q0.515625 0 0.984375 0.09375q0.46875 0.09375 0.890625 0.296875q0.140625 -0.09375 0.25 -0.140625q0.125 -0.0625 0.21875 -0.0625q0.3125 0 0.5 0.234375q0.203125 0.21875 0.203125 0.75l0 0.359375q0 0.46875 -0.109375 0.640625q-0.234375 0.34375 -0.625 0.34375q-0.265625 0 -0.46875 -0.171875q-0.1875 -0.171875 -0.25 -0.4375zm15.637238 -0.25l0 2.9375q0 0.46875 0.203125 0.625q0.296875 0.234375 1.0625 0.234375q1.125 0 2.078125 -0.46875q0.375 -0.1875 0.578125 -0.1875q0.28125 0 0.484375 0.21875q0.21875 0.203125 0.21875 0.515625q0 0.28125 -0.21875 0.484375q-0.359375 0.34375 -1.390625 0.625q-1.03125 0.28125 -1.75 0.28125q-1.359375 0 -2.046875 -0.578125q-0.6875 -0.59375 -0.6875 -1.453125l0 -3.234375l-0.515625 0q-0.53125 0 -0.765625 -0.203125q-0.21875 -0.203125 -0.21875 -0.53125q0 -0.328125 0.21875 -0.53125q0.234375 -0.203125 0.765625 -0.203125l0.515625 0l0 -1.328125q0 -0.515625 0.203125 -0.734375q0.21875 -0.234375 0.546875 -0.234375q0.3125 0 0.515625 0.234375q0.203125 0.21875 0.203125 0.734375l0 1.328125l2.71875 0q0.53125 0 0.75 0.203125q0.234375 0.203125 0.234375 0.53125q0 0.328125 -0.234375 0.53125q-0.21875 0.203125 -0.75 0.203125l-2.71875 0zm7.6545563 -4.25l0 3.125q0.453125 -0.265625 0.921875 -0.390625q0.46875 -0.140625 0.953125 -0.140625q0.75 0 1.34375 0.265625q0.59375 0.25 0.984375 0.8125q0.390625 0.546875 0.390625 1.390625l0 2.75q0.5625 0 0.734375 0.109375q0.34375 0.21875 0.34375 0.625q0 0.328125 -0.234375 0.53125q-0.21875 0.203125 -0.75 0.203125l-1.671875 0q-0.515625 0 -0.75 -0.203125q-0.21875 -0.203125 -0.21875 -0.53125q0 -0.40625 0.34375 -0.625q0.171875 -0.109375 0.734375 -0.109375l0 -2.65625q0 -0.5625 -0.265625 -0.796875q-0.328125 -0.296875 -0.984375 -0.296875q-0.5 0 -0.875 0.1875q-0.375 0.1875 -1.0 0.8125l0 2.75q0.5625 0 0.71875 0.109375q0.359375 0.21875 0.359375 0.625q0 0.328125 -0.234375 0.53125q-0.21875 0.203125 -0.75 0.203125l-1.671875 0q-0.53125 0 -0.75 -0.203125q-0.21875 -0.203125 -0.21875 -0.53125q0 -0.40625 0.34375 -0.625q0.171875 -0.109375 0.734375 -0.109375l0 -6.34375l-0.25 0q-0.53125 0 -0.765625 -0.203125q-0.21875 -0.203125 -0.21875 -0.53125q0 -0.328125 0.21875 -0.53125q0.234375 -0.203125 0.765625 -0.203125l1.71875 0zm13.982681 6.78125l-6.015625 0q0.234375 0.5625 0.8125 0.921875q0.578125 0.34375 1.578125 0.34375q0.8125 0 2.171875 -0.34375q0.546875 -0.140625 0.765625 -0.140625q0.296875 0 0.5 0.203125q0.203125 0.203125 0.203125 0.515625q0 0.296875 -0.21875 0.484375q-0.296875 0.265625 -1.40625 0.515625q-1.09375 0.234375 -2.125 0.234375q-1.765625 0 -2.828125 -0.984375q-1.046875 -1.0 -1.046875 -2.453125q0 -1.546875 1.140625 -2.515625q1.140625 -0.96875 2.640625 -0.96875q0.890625 0 1.640625 0.3125q0.75 0.3125 1.109375 0.671875q0.515625 0.53125 0.84375 1.3125q0.234375 0.546875 0.234375 1.265625l0 0.625zm-1.625 -1.46875q-0.328125 -0.625 -0.875 -0.9375q-0.546875 -0.3125 -1.296875 -0.3125q-0.75 0 -1.296875 0.3125q-0.53125 0.3125 -0.875 0.9375l4.34375 0zm13.715363 3.15625l0 2.40625l0.875 0q0.53125 0 0.75 0.203125q0.234375 0.203125 0.234375 0.53125q0 0.328125 -0.234375 0.53125q-0.21875 0.203125 -0.75 0.203125l-2.59375 0q-0.53125 0 -0.765625 -0.203125q-0.21875 -0.203125 -0.21875 -0.53125q0 -0.328125 0.234375 -0.53125q0.234375 -0.203125 0.75 -0.203125l0.25 0l0 -6.625l-0.25 0q-0.53125 0 -0.765625 -0.203125q-0.21875 -0.203125 -0.21875 -0.53125q0 -0.328125 0.21875 -0.53125q0.234375 -0.203125 0.765625 -0.203125l1.71875 0l0 0.5q0.515625 -0.34375 1.0625 -0.515625q0.546875 -0.171875 1.125 -0.171875q1.515625 0 2.5625 1.015625q1.0625 1.015625 1.0625 2.34375q0 1.453125 -1.25 2.390625q-1.046875 0.78125 -2.359375 0.78125q-0.5625 0 -1.109375 -0.15625q-0.546875 -0.171875 -1.09375 -0.5zm4.34375 -2.515625q0 -0.3125 -0.25 -0.78125q-0.234375 -0.484375 -0.734375 -0.796875q-0.5 -0.3125 -1.1875 -0.3125q-1.09375 0 -1.734375 0.8125q-0.4375 0.578125 -0.4375 1.09375q0 0.578125 0.625 1.140625q0.625 0.546875 1.546875 0.546875q0.9375 0 1.546875 -0.546875q0.625 -0.546875 0.625 -1.15625zm7.5920563 3.328125l0 -0.34375q-0.546875 0.296875 -1.21875 0.4375q-0.671875 0.15625 -1.203125 0.15625q-1.1875 0 -1.921875 -0.625q-0.734375 -0.640625 -0.734375 -1.390625q0 -0.921875 0.9375 -1.703125q0.9375 -0.796875 2.59375 -0.796875q0.671875 0 1.546875 0.140625l0 -0.359375q0 -0.328125 -0.28125 -0.53125q-0.28125 -0.203125 -1.078125 -0.203125q-0.65625 0 -1.6875 0.25q-0.390625 0.09375 -0.609375 0.09375q-0.28125 0 -0.5 -0.203125q-0.203125 -0.21875 -0.203125 -0.546875q0 -0.1875 0.078125 -0.3125q0.078125 -0.140625 0.203125 -0.21875q0.125 -0.09375 0.53125 -0.203125q0.546875 -0.15625 1.109375 -0.234375q0.5625 -0.09375 1.03125 -0.09375q1.359375 0 2.109375 0.59375q0.765625 0.578125 0.765625 1.609375l0 3.015625l0.25 0q0.53125 0 0.75 0.203125q0.234375 0.203125 0.234375 0.53125q0 0.328125 -0.234375 0.53125q-0.21875 0.203125 -0.75 0.203125l-1.71875 0zm0 -2.625q-0.875 -0.171875 -1.625 -0.171875q-0.890625 0 -1.53125 0.4375q-0.40625 0.28125 -0.40625 0.5625q0 0.203125 0.1875 0.34375q0.359375 0.234375 0.984375 0.234375q0.53125 0 1.203125 -0.203125q0.671875 -0.21875 1.1875 -0.578125l0 -0.625zm7.1076813 -2.40625l0 2.9375q0 0.46875 0.203125 0.625q0.296875 0.234375 1.0625 0.234375q1.125 0 2.078125 -0.46875q0.375 -0.1875 0.578125 -0.1875q0.28125 0 0.484375 0.21875q0.21875 0.203125 0.21875 0.515625q0 0.28125 -0.21875 0.484375q-0.359375 0.34375 -1.390625 0.625q-1.03125 0.28125 -1.75 0.28125q-1.359375 0 -2.046875 -0.578125q-0.6875 -0.59375 -0.6875 -1.453125l0 -3.234375l-0.515625 0q-0.53125 0 -0.765625 -0.203125q-0.21875 -0.203125 -0.21875 -0.53125q0 -0.328125 0.21875 -0.53125q0.234375 -0.203125 0.765625 -0.203125l0.515625 0l0 -1.328125q0 -0.515625 0.203125 -0.734375q0.21875 -0.234375 0.546875 -0.234375q0.3125 0 0.515625 0.234375q0.203125 0.21875 0.203125 0.734375l0 1.328125l2.71875 0q0.53125 0 0.75 0.203125q0.234375 0.203125 0.234375 0.53125q0 0.328125 -0.234375 0.53125q-0.21875 0.203125 -0.75 0.203125l-2.71875 0zm7.6545563 -4.25l0 3.125q0.453125 -0.265625 0.921875 -0.390625q0.46875 -0.140625 0.953125 -0.140625q0.75 0 1.34375 0.265625q0.59375 0.25 0.984375 0.8125q0.390625 0.546875 0.390625 1.390625l0 2.75q0.5625 0 0.734375 0.109375q0.34375 0.21875 0.34375 0.625q0 0.328125 -0.234375 0.53125q-0.21875 0.203125 -0.75 0.203125l-1.671875 0q-0.515625 0 -0.75 -0.203125q-0.21875 -0.203125 -0.21875 -0.53125q0 -0.40625 0.34375 -0.625q0.171875 -0.109375 0.734375 -0.109375l0 -2.65625q0 -0.5625 -0.265625 -0.796875q-0.328125 -0.296875 -0.984375 -0.296875q-0.5 0 -0.875 0.1875q-0.375 0.1875 -1.0 0.8125l0 2.75q0.5625 0 0.71875 0.109375q0.359375 0.21875 0.359375 0.625q0 0.328125 -0.234375 0.53125q-0.21875 0.203125 -0.75 0.203125l-1.671875 0q-0.53125 0 -0.75 -0.203125q-0.21875 -0.203125 -0.21875 -0.53125q0 -0.40625 0.34375 -0.625q0.171875 -0.109375 0.734375 -0.109375l0 -6.34375l-0.25 0q-0.53125 0 -0.765625 -0.203125q-0.21875 -0.203125 -0.21875 -0.53125q0 -0.328125 0.21875 -0.53125q0.234375 -0.203125 0.765625 -0.203125l1.71875 0zm22.902863 6.15625q0 0.84375 -0.46875 1.640625q-0.46875 0.78125 -1.390625 1.25q-0.921875 0.46875 -1.9375 0.46875q-1.0 0 -1.921875 -0.453125q-0.90625 -0.46875 -1.390625 -1.265625q-0.484375 -0.796875 -0.484375 -1.65625q0 -0.875 0.484375 -1.71875q0.5 -0.859375 1.40625 -1.34375q0.90625 -0.484375 1.90625 -0.484375q1.0 0 1.921875 0.5q0.9375 0.484375 1.40625 1.328125q0.46875 0.84375 0.46875 1.734375zm-1.46875 0q0 -0.703125 -0.5 -1.296875q-0.703125 -0.796875 -1.828125 -0.796875q-1.0 0 -1.671875 0.640625q-0.65625 0.625 -0.65625 1.46875q0 0.6875 0.671875 1.28125q0.671875 0.59375 1.65625 0.59375q0.984375 0 1.65625 -0.59375q0.671875 -0.59375 0.671875 -1.296875zm6.4514465 -1.90625l0 3.5625l2.078125 0q0.53125 0 0.75 0.203125q0.234375 0.203125 0.234375 0.53125q0 0.328125 -0.234375 0.53125q-0.21875 0.203125 -0.75 0.203125l-4.421875 0q-0.53125 0 -0.765625 -0.203125q-0.21875 -0.203125 -0.21875 -0.53125q0 -0.328125 0.21875 -0.53125q0.234375 -0.203125 0.765625 -0.203125l0.875 0l0 -3.5625l-0.703125 0q-0.53125 0 -0.765625 -0.203125q-0.21875 -0.203125 -0.21875 -0.53125q0 -0.328125 0.21875 -0.53125q0.234375 -0.203125 0.765625 -0.203125l0.703125 0l0 -0.5625q0 -0.953125 0.71875 -1.578125q0.71875 -0.640625 2.078125 -0.640625q0.609375 0 1.40625 0.109375q0.796875 0.109375 1.015625 0.3125q0.234375 0.203125 0.234375 0.515625q0 0.328125 -0.203125 0.546875q-0.1875 0.21875 -0.484375 0.21875q-0.140625 0 -0.40625 -0.0625q-0.90625 -0.171875 -1.609375 -0.171875q-0.734375 0 -1.015625 0.21875q-0.265625 0.21875 -0.265625 0.53125l0 0.5625l2.25 0q0.53125 0 0.75 0.203125q0.234375 0.203125 0.234375 0.53125q0 0.328125 -0.234375 0.53125q-0.21875 0.203125 -0.75 0.203125l-2.25 0z" fill-rule="nonzero"/><path fill="#ffffff" d="m82.72531 447.89523l0 -0.34375q-0.546875 0.296875 -1.21875 0.4375q-0.671875 0.15625 -1.203125 0.15625q-1.1875 0 -1.921875 -0.625q-0.734375 -0.640625 -0.734375 -1.390625q0 -0.921875 0.9375 -1.703125q0.9375 -0.796875 2.59375 -0.796875q0.671875 0 1.546875 0.140625l0 -0.359375q0 -0.328125 -0.28125 -0.53125q-0.28125 -0.203125 -1.078125 -0.203125q-0.65625 0 -1.6875 0.25q-0.390625 0.09375 -0.609375 0.09375q-0.28125 0 -0.5 -0.203125q-0.203125 -0.21875 -0.203125 -0.546875q0 -0.1875 0.078125 -0.3125q0.078125 -0.140625 0.203125 -0.21875q0.125 -0.09375 0.53125 -0.203125q0.546875 -0.15625 1.109375 -0.234375q0.5625 -0.09375 1.03125 -0.09375q1.359375 0 2.109375 0.59375q0.765625 0.578125 0.765625 1.609375l0 3.015625l0.25 0q0.53125 0 0.75 0.203125q0.234375 0.203125 0.234375 0.53125q0 0.328125 -0.234375 0.53125q-0.21875 0.203125 -0.75 0.203125l-1.71875 0zm0 -2.625q-0.875 -0.171875 -1.625 -0.171875q-0.890625 0 -1.53125 0.4375q-0.40625 0.28125 -0.40625 0.5625q0 0.203125 0.1875 0.34375q0.359375 0.234375 0.984375 0.234375q0.53125 0 1.203125 -0.203125q0.671875 -0.21875 1.1875 -0.578125l0 -0.625zm14.777863 -3.875l0 0.5q0.40625 -0.34375 0.890625 -0.515625q0.484375 -0.171875 1.046875 -0.171875q1.296875 0 2.0625 0.8125q0.59375 0.640625 0.59375 1.6875l0 2.71875q0.46875 0 0.6875 0.203125q0.234375 0.203125 0.234375 0.53125q0 0.328125 -0.234375 0.53125q-0.21875 0.203125 -0.75 0.203125l-1.328125 0q-0.53125 0 -0.765625 -0.203125q-0.21875 -0.203125 -0.21875 -0.53125q0 -0.328125 0.21875 -0.53125q0.234375 -0.203125 0.703125 -0.203125l0 -2.765625q0 -0.484375 -0.265625 -0.703125q-0.328125 -0.28125 -1.015625 -0.28125q-0.5 0 -0.890625 0.203125q-0.375 0.1875 -0.96875 0.828125l0 2.71875q0.578125 0 0.734375 0.109375q0.359375 0.21875 0.359375 0.625q0 0.328125 -0.234375 0.53125q-0.21875 0.203125 -0.75 0.203125l-1.671875 0q-0.53125 0 -0.765625 -0.203125q-0.21875 -0.203125 -0.21875 -0.53125q0 -0.40625 0.34375 -0.625q0.171875 -0.109375 0.75 -0.109375l0 -3.5625q-0.46875 0 -0.703125 -0.203125q-0.21875 -0.21875 -0.21875 -0.53125q0 -0.328125 0.21875 -0.53125q0.234375 -0.203125 0.765625 -0.203125l1.390625 0zm13.967056 4.0l-6.015625 0q0.234375 0.5625 0.8125 0.921875q0.578125 0.34375 1.578125 0.34375q0.8125 0 2.171875 -0.34375q0.546875 -0.140625 0.765625 -0.140625q0.296875 0 0.5 0.203125q0.203125 0.203125 0.203125 0.515625q0 0.296875 -0.21875 0.484375q-0.296875 0.265625 -1.40625 0.515625q-1.09375 0.234375 -2.125 0.234375q-1.765625 0 -2.828125 -0.984375q-1.046875 -1.0 -1.046875 -2.453125q0 -1.546875 1.140625 -2.515625q1.140625 -0.96875 2.640625 -0.96875q0.890625 0 1.640625 0.3125q0.75 0.3125 1.109375 0.671875q0.515625 0.53125 0.84375 1.3125q0.234375 0.546875 0.234375 1.265625l0 0.625zm-1.625 -1.46875q-0.328125 -0.625 -0.875 -0.9375q-0.546875 -0.3125 -1.296875 -0.3125q-0.75 0 -1.296875 0.3125q-0.53125 0.3125 -0.875 0.9375l4.34375 0zm9.857681 -2.53125l0 5.03125q0.46875 0 0.6875 0.21875q0.21875 0.203125 0.21875 0.515625q0 0.328125 -0.234375 0.53125q-0.21875 0.203125 -0.75 0.203125l-1.390625 0l0 -0.34375q-0.625 0.296875 -1.203125 0.4375q-0.578125 0.140625 -1.09375 0.140625q-0.71875 0 -1.25 -0.296875q-0.53125 -0.3125 -0.828125 -0.84375q-0.21875 -0.390625 -0.21875 -0.96875l0 -3.15625l-0.265625 0q-0.515625 0 -0.75 -0.203125q-0.21875 -0.203125 -0.21875 -0.53125q0 -0.328125 0.21875 -0.53125q0.234375 -0.203125 0.75 -0.203125l1.71875 0l0 4.375q0 0.453125 0.21875 0.671875q0.234375 0.21875 0.703125 0.21875q0.4375 0 0.953125 -0.171875q0.515625 -0.171875 1.265625 -0.640625l0 -2.984375l-0.53125 0q-0.53125 0 -0.765625 -0.203125q-0.21875 -0.203125 -0.21875 -0.53125q0 -0.328125 0.21875 -0.53125q0.234375 -0.203125 0.765625 -0.203125l2.0 0zm5.3108063 1.46875l0 2.9375q0 0.46875 0.203125 0.625q0.296875 0.234375 1.0625 0.234375q1.125 0 2.078125 -0.46875q0.375 -0.1875 0.578125 -0.1875q0.28125 0 0.484375 0.21875q0.21875 0.203125 0.21875 0.515625q0 0.28125 -0.21875 0.484375q-0.359375 0.34375 -1.390625 0.625q-1.03125 0.28125 -1.75 0.28125q-1.359375 0 -2.046875 -0.578125q-0.6875 -0.59375 -0.6875 -1.453125l0 -3.234375l-0.515625 0q-0.53125 0 -0.765625 -0.203125q-0.21875 -0.203125 -0.21875 -0.53125q0 -0.328125 0.21875 -0.53125q0.234375 -0.203125 0.765625 -0.203125l0.515625 0l0 -1.328125q0 -0.515625 0.203125 -0.734375q0.21875 -0.234375 0.546875 -0.234375q0.3125 0 0.515625 0.234375q0.203125 0.21875 0.203125 0.734375l0 1.328125l2.71875 0q0.53125 0 0.75 0.203125q0.234375 0.203125 0.234375 0.53125q0 0.328125 -0.234375 0.53125q-0.21875 0.203125 -0.75 0.203125l-2.71875 0zm8.857681 -1.46875l0 0.921875q0.921875 -0.671875 1.453125 -0.890625q0.53125 -0.21875 1.0 -0.21875q0.71875 0 1.390625 0.53125q0.453125 0.359375 0.453125 0.71875q0 0.328125 -0.21875 0.546875q-0.21875 0.203125 -0.515625 0.203125q-0.28125 0 -0.578125 -0.265625q-0.296875 -0.265625 -0.53125 -0.265625q-0.3125 0 -0.921875 0.390625q-0.609375 0.375 -1.53125 1.15625l0 2.203125l2.09375 0q0.53125 0 0.75 0.203125q0.21875 0.203125 0.21875 0.53125q0 0.328125 -0.21875 0.53125q-0.21875 0.203125 -0.75 0.203125l-4.4375 0q-0.53125 0 -0.765625 -0.203125q-0.21875 -0.203125 -0.21875 -0.53125q0 -0.328125 0.21875 -0.53125q0.234375 -0.203125 0.765625 -0.203125l0.875 0l0 -3.5625l-0.53125 0q-0.53125 0 -0.765625 -0.203125q-0.21875 -0.203125 -0.21875 -0.53125q0 -0.328125 0.21875 -0.53125q0.234375 -0.203125 0.765625 -0.203125l2.0 0zm12.904556 3.375q0 0.84375 -0.46875 1.640625q-0.46875 0.78125 -1.390625 1.25q-0.921875 0.46875 -1.9375 0.46875q-1.0 0 -1.921875 -0.453125q-0.90625 -0.46875 -1.390625 -1.265625q-0.484375 -0.796875 -0.484375 -1.65625q0 -0.875 0.484375 -1.71875q0.5 -0.859375 1.40625 -1.34375q0.90625 -0.484375 1.90625 -0.484375q1.0 0 1.921875 0.5q0.9375 0.484375 1.40625 1.328125q0.46875 0.84375 0.46875 1.734375zm-1.46875 0q0 -0.703125 -0.5 -1.296875q-0.703125 -0.796875 -1.828125 -0.796875q-1.0 0 -1.671875 0.640625q-0.65625 0.625 -0.65625 1.46875q0 0.6875 0.671875 1.28125q0.671875 0.59375 1.65625 0.59375q0.984375 0 1.65625 -0.59375q0.671875 -0.59375 0.671875 -1.296875zm4.9670563 -3.375l0 0.5q0.40625 -0.34375 0.890625 -0.515625q0.484375 -0.171875 1.046875 -0.171875q1.296875 0 2.0625 0.8125q0.59375 0.640625 0.59375 1.6875l0 2.71875q0.46875 0 0.6875 0.203125q0.234375 0.203125 0.234375 0.53125q0 0.328125 -0.234375 0.53125q-0.21875 0.203125 -0.75 0.203125l-1.328125 0q-0.53125 0 -0.765625 -0.203125q-0.21875 -0.203125 -0.21875 -0.53125q0 -0.328125 0.21875 -0.53125q0.234375 -0.203125 0.703125 -0.203125l0 -2.765625q0 -0.484375 -0.265625 -0.703125q-0.328125 -0.28125 -1.015625 -0.28125q-0.5 0 -0.890625 0.203125q-0.375 0.1875 -0.96875 0.828125l0 2.71875q0.578125 0 0.734375 0.109375q0.359375 0.21875 0.359375 0.625q0 0.328125 -0.234375 0.53125q-0.21875 0.203125 -0.75 0.203125l-1.671875 0q-0.53125 0 -0.765625 -0.203125q-0.21875 -0.203125 -0.21875 -0.53125q0 -0.40625 0.34375 -0.625q0.171875 -0.109375 0.75 -0.109375l0 -3.5625q-0.46875 0 -0.703125 -0.203125q-0.21875 -0.21875 -0.21875 -0.53125q0 -0.328125 0.21875 -0.53125q0.234375 -0.203125 0.765625 -0.203125l1.390625 0z" fill-rule="nonzero"/></g></svg>